PathFileType	4	(X/Y/Z)	RBDS026\RBDS026runT45.trc
DataRate	CameraRate	NumFrames	NumMarkers	Units	OrigDataRate	OrigDataStartFrame	OrigNumFrames
150.000000	150.000000	6	33	mm	150.000000	2250	4500
Frame#	Time	L.ASIS			L.Heel.Bottom			L.Heel.Lateral			L.Heel.Top			L.Iliac.Crest			L.MT1			L.MT5			L.PSIS			L.Shank.Bottom.Lateral			L.Shank.Bottom.Medial			L.Shank.Top.Lateral			L.Shank.Top.Medial			L.Thigh.Bottom.Lateral			L.Thigh.Bottom.Medial			L.Thigh.Top.Lateral			L.Thigh.Top.Medial			R.ASIS			R.ASY			R.Heel.Bottom			R.Heel.Lateral			R.Heel.Top			R.Iliac.Crest			R.MT1			R.MT5			R.PSIS			R.Shank.Bottom.Lateral			R.Shank.Bottom.Medial			R.Shank.Top.Lateral			R.Shank.Top.Medial			R.Thigh.Bottom.Lateral			R.Thigh.Bottom.Medial			R.Thigh.Top.Lateral			R.Thigh.Top.Medial			
		X1	Y1	Z1	X2	Y2	Z2	X3	Y3	Z3	X4	Y4	Z4	X5	Y5	Z5	X6	Y6	Z6	X7	Y7	Z7	X8	Y8	Z8	X9	Y9	Z9	X10	Y10	Z10	X11	Y11	Z11	X12	Y12	Z12	X13	Y13	Z13	X14	Y14	Z14	X15	Y15	Z15	X16	Y16	Z16	X17	Y17	Z17	X18	Y18	Z18	X19	Y19	Z19	X20	Y20	Z20	X21	Y21	Z21	X22	Y22	Z22	X23	Y23	Z23	X24	Y24	Z24	X25	Y25	Z25	X26	Y26	Z26	X27	Y27	Z27	X28	Y28	Z28	X29	Y29	Z29	X30	Y30	Z30	X31	Y31	Z31	X32	Y32	Z32	X33	Y33	Z33	

2251	15	2242.458129956389	979.7430601098511	942.3111658479196	1730.840524427737	707.2343201603662	1076.382249788164	1716.919299994084	684.5503841050952	1020.802792492542	1759.624509998321	671.1796556744171	1059.601723946276	2191.705209907511	1066.859808550605	897.8018867475699	1595.245502137837	524.9911938908676	1069.162512354896	1601.646552980895	590.8898501112686	977.8878274131195	2073.133993346111	1044.846560986399	1005.888022614438	1790.677937901987	597.2155502959089	969.746708048749	1812.017210905896	631.7875934672564	1001.184581513183	1862.308855716058	577.0301149794821	937.8506852946989	1887.747583872483	611.7643372068877	968.6770158062427	2112.259196524661	579.9708889078327	880.646084159828	2060.705698011669	585.1586351142863	932.1579586199872	2111.172059968176	689.288417490079	868.8122766913351	2061.28367773322	693.5041484715732	918.0092458234528	2235.28177092774	1015.683243224238	1177.431419883768	2392.774164387123	82.99870166413788	1088.038266206255	2214.267182810486	28.80028059923433	1047.145644138293	2240.557339896866	40.03108450517993	1097.940325689287	2223.446611384829	72.8047271515547	1054.44920202937	2157.53725937632	1077.82510154131	1221.248224453277	2439.220177453978	55.32345354859454	1035.696127275077	2400.519216208691	28.85200662424666	1141.682712807902	2069.293399973074	1053.392939865563	1106.338974574528	2287.593334519935	144.6074011642995	1141.982834091331	2241.10316422684	151.3743388234469	1112.156835859382	2274.645478325938	217.4365414272848	1175.612658948233	2229.831076979818	223.3965483438837	1145.576804893336	2279.327360421918	607.9901809329784	1241.801864591366	2217.150841571148	585.8457006530022	1215.152220189699	2237.462368897819	709.3324618920457	1256.102194983997	2177.408510964869	687.4415667264207	1232.094807485696	
2252	15.00666666666667	2241.454844629543	973.1337229114147	942.7164565017248	1749.186242676491	705.9070767858778	1073.346917881968	1736.425978629156	682.8848092457405	1017.691089185182	1778.150688612027	669.6269476692315	1057.544299947866	2190.279659518957	1059.537585837189	896.7322876454823	1612.695464270059	523.9582510806032	1064.376333559845	1621.573118707532	589.3197195328204	972.8157417783249	2070.836681859893	1038.459548579958	1003.648331358772	1809.839561664797	594.7529945213314	967.3705720818446	1831.692448618564	628.831722752018	999.1199225022514	1881.342141422176	573.2352374528524	935.9116903456966	1907.314135055398	607.3566961297302	967.0896651765943	2125.261224385234	572.8668953856799	879.4895239500115	2073.28613782196	576.1750142306887	930.5625583791573	2120.333667409875	682.057453051356	867.6674398784369	2069.563257091956	684.3114232085921	915.9182794579053	2232.072806887418	1010.318210187568	1178.327004270093	2365.251414648807	80.17697548047443	1084.818664971498	2185.018352783611	29.20613617413768	1045.952177077935	2211.769792438736	41.210089868675	1096.310175990892	2195.476895473416	73.33789907508763	1051.947884698395	2153.364765932124	1070.391064338168	1220.641045778296	2411.205716524524	50.73133388764874	1033.295884101781	2371.508805041232	27.75472094247515	1140.424884128016	2065.891094830039	1048.000212091354	1103.550149468006	2264.65996166709	142.1121026708099	1139.903608533064	2217.963876654864	151.5647574166057	1111.061885439254	2255.664326172539	215.0961677136611	1174.763520003907	2210.700151572275	223.5767971062871	1145.54066329171	2272.806862114017	603.6842299618911	1243.973285668062	2211.265033502967	581.7419094773705	1215.774019151117	2230.705059849833	705.2340379190092	1257.504947978533	2171.34051855553	683.3973913710719	1232.053637617652	
2253	15.01333333333333	2240.203448194417	967.0863620006199	943.1937066948774	1766.533811525554	703.5771221493222	1069.914861900641	1755.163500520205	679.9568100766784	1014.290248436143	1795.913736111094	667.2705568238736	1055.307672419374	2187.5319234472	1052.901001489869	895.8552394361328	1630.642062226106	520.8506914534292	1059.606053503571	1641.495991655878	585.5085483067726	967.6744671378843	2068.275440072407	1032.547002792121	1001.485210167492	1828.963739004719	591.4761053240157	964.9292481618712	1851.026739101	625.2912100506846	996.9181757452019	1900.500819995435	569.1177708147403	934.0059368369989	1926.680680106218	602.90310702521	965.4582145147986	2138.997733106992	567.0268440935952	878.6629284930758	2086.713671563056	568.308253722581	929.2671358502371	2129.964466827343	675.8975719498534	866.8093850298416	2078.412043293172	676.013896055921	914.089277893314	2228.362908747901	1005.515184846718	1179.731926443973	2336.77685263438	78.51437795425528	1082.197459922928	2155.316684143234	29.90350184134008	1045.109297214044	2182.435631737917	42.65364640850375	1095.096954525239	2166.70364691711	74.15539195198917	1050.043723836782	2148.609382654583	1063.440609952837	1219.871265309709	2382.319882633871	47.85880328925664	1031.39677560727	2341.90471876011	27.59097250219817	1139.386261529391	2062.250438528713	1043.026285676688	1100.634594754018	2240.735702440251	140.55990640765	1138.323736696957	2193.956868137841	152.656897123551	1110.505767346153	2235.669002276692	213.5777186735741	1174.278266351922	2190.709400091774	224.5288973441546	1145.830077374313	2265.402088212536	599.5230324004945	1246.00813599121	2204.512134205088	577.9683462238315	1216.110546731755	2223.257803265594	701.3942674486724	1258.79304543958	2164.621094996545	679.7705425365393	1231.745948894644	
2254	15.02	2238.730745157444	961.8490592002299	943.7792387003175	1782.624518598202	700.2316988638574	1066.166046574348	1772.877398382097	675.8164478741305	1010.672241977795	1812.66348396952	664.1390656074241	1052.936492086478	2183.516066594674	1047.204205943715	895.2078190802147	1648.997965811689	515.624314859994	1054.903107704858	1661.271342701606	579.489379095492	962.5373390450713	2065.539474800249	1027.3222159626	999.456197688586	1847.850520277909	587.4794592408504	962.4909663108914	1869.796416282386	621.2887155322206	994.6291244304203	1919.605077788476	564.8260480925339	932.2004636234509	1945.649914187555	598.5815862590188	963.8362196596378	2153.398934791534	562.6806094286641	878.2008026321049	2100.915587249025	561.7850213541028	928.3064996332373	2139.999870145132	671.0049194860555	866.2688911698223	2087.794255014834	668.8181108902218	912.5802284098428	2224.230261256555	1001.38907786866	1181.688536501516	2307.57298364792	77.74761148282246	1080.378762460866	2125.336775193457	30.7811865528691	1044.674373957852	2152.714169876285	44.14489740240698	1094.390466247492	2137.3243744096	75.13691225661864	1048.868723742556	2143.332383180814	1057.198943035154	1218.967679397937	2352.79558443874	46.44249667685215	1030.152293042344	2311.895066332571	28.00699432765888	1138.694482455192	2058.507144674553	1038.619358859732	1097.696925180541	2215.952639439646	139.7908942072514	1137.372576601381	2169.215948436209	154.420538870874	1110.595378540005	2214.72626033433	212.724431235647	1174.240724426663	2169.907004773414	226.0322812118062	1146.528426681159	2257.031461573274	595.4798533641472	1247.807258247486	2196.763128545116	574.5306005534266	1216.149437450143	2215.15128600042	697.7984565165716	1259.883045068908	2157.224786428836	676.5944372773896	1231.167481226585	
2255	15.02666666666667	2237.078041078468	957.650286732238	944.4911070479757	1797.255252647046	695.8218937031617	1062.191237456138	1789.369758274724	670.493013388256	1006.916364937566	1828.199654568751	660.2280917803339	1050.472067652431	2178.406175484994	1042.66708407502	894.8130290826718	1667.708022219514	508.2685890960892	1050.31869253616	1680.813194402532	571.3231022057357	957.4776317722077	2062.737984376882	1022.98109706774	997.6291667475526	1866.322863293423	582.8411087104446	960.1248646308462	1887.805815095977	616.9169147747538	992.3027515308629	1938.482296801143	560.4788498016758	930.5556849593681	1964.037556349082	594.52638919089	962.2683822468462	2168.358840789777	560.0150631478466	878.12442204639	2115.77881394141	556.7956639225972	927.7042148576501	2150.352595492835	667.5374425156119	866.0597025273061	2097.647658495385	662.9030545844632	911.4321305074668	2219.81844731078	997.9977686210677	1184.167141349842	2277.834410033738	77.60469916802846	1079.446972203813	2095.189502570613	31.75815899038847	1044.656824905587	2122.717347643764	45.5266827717263	1094.216923991558	2107.498095021933	76.19515408525909	1048.466305866656	2137.685470253301	1051.862284583701	1217.989299424989	2322.820012591314	46.14492028515856	1029.612939126887	2281.614561835501	28.68488998969161	1138.411890184355	2054.819642411968	1034.916693199289	1094.877884300794	2190.41833273402	139.6297654555259	1137.089172977319	2143.845575417274	156.6235445886888	1111.337498794462	2192.89296914682	212.3677070175524	1174.661625407484	2148.32219291937	227.8687692440679	1147.649021464177	2247.647989284205	591.5409363744353	1249.297353255213	2187.916523286082	571.4407767747738	1215.924437990818	2206.454103719669	694.4383813692458	1260.712061689483	2149.155158391674	673.9039775193643	1230.354772661493	
2256	15.03333333333333	2235.300653601593	954.6775894276797	945.3221293444154	1810.29699501611	690.265409932554	1058.085856613199	1804.514795258709	663.9913648938654	1003.104646083235	1842.388191300994	655.4993540757836	1047.951957578146	2172.486799235264	1039.451519674349	894.675895524365	1686.754131363517	498.8149121459755	1045.905569681851	1700.097839519168	561.0983950889691	952.5681953135568	2059.989284443462	1019.682622853558	996.0820768629471	1884.237566803291	577.6168755370762	957.8972076680768	1904.899157336264	612.2303373627919	989.9870272620595	1956.976152954452	556.1573390121506	929.1218609988597	1981.680963214724	590.8174615550662	960.7877683749723	2183.735192915895	559.1628375972326	878.4414024406067	2131.150578692362	553.4846486371425	927.4717086890787	2160.915115591675	665.6074003912938	866.1788781519498	2107.883166169429	658.4119651187552	910.6661856666231	2215.328379857457	995.3420577628128	1187.058971427573	2247.727087006588	77.84212101674288	1079.365738629837	2064.933104231404	32.79848951541845	1045.015962150836	2092.519876947899	46.72274678191291	1094.536377691794	2077.348844355371	77.29113965795692	1048.788149959783	2131.90927772334	1047.583668681473	1217.020384817965	2292.53409534042	46.60506283169713	1029.72891902	2251.149495177855	29.37816189533796	1138.529432657126	2051.353926460015	1032.032800365296	1092.344554836578	2164.215049423173	139.9218188699628	1137.421633819662	2117.923681284629	159.0712678768356	1112.635678342742	2170.214210312222	212.3634019265683	1175.475927439076	2125.970752548728	229.8616880691282	1149.126113261791	2237.244949475548	587.7202461527952	1250.43318056897	2177.91080122354	568.7310612833062	1215.506406525079	2197.266198785971	691.3245824139063	1261.242918780011	2140.446488023344	671.744126465046	1229.379468090428	
